<svg id="Layer_1" data-name="Layer 1" xmlns="http://www.w3.org/2000/svg" viewBox="0 0 168 168"><defs><style>.cls-1{fill:#021c1e;}.cls-2{fill:#2c7873;}.cls-3{fill:#004445;}.cls-4{fill:#6fb98f;}.cls-5{fill:#fff;}</style></defs><polygon class="cls-1" points="84 0 84 84.07 0 84.07 0 84 84 0"/><polygon class="cls-2" points="84 84.07 84 168 0.07 84.07 84 84.07"/><path class="cls-3" d="M84,0V84.07h84V84A84,84,0,0,0,84,0Z"/><path class="cls-4" d="M84,84.07V168a84,84,0,0,0,84-83.93Z"/><path class="cls-5" d="M44.25,60.79q5.85,0,8.72,2.74t2.87,8.12A8.65,8.65,0,0,1,50.29,80a16.92,16.92,0,0,1-6.77,1.19l.24-2.74a20.85,20.85,0,0,1,4.33.52,16,16,0,0,1,4.73,1.83,10.83,10.83,0,0,1,3.78,3.66,11,11,0,0,1,1.5,6,14.31,14.31,0,0,1-1.32,6.58,10.16,10.16,0,0,1-3.44,4A13.15,13.15,0,0,1,48.76,103a22.23,22.23,0,0,1-4.69.52H28.88a3.64,3.64,0,0,1-3.72-3.72V64.51a3.64,3.64,0,0,1,3.72-3.72ZM43.15,68H32.29l.8-1v11l-.74-.55h11a4.84,4.84,0,0,0,3.18-1.16A4.11,4.11,0,0,0,47.91,73a4.38,4.38,0,0,0-4.76-5Zm.49,16.71H32.54l.55-.49V97.08l-.61-.61H44.07A6.35,6.35,0,0,0,48.52,95a5.75,5.75,0,0,0,1.65-4.48,5.89,5.89,0,0,0-1.1-4A4.69,4.69,0,0,0,46.44,85,13.84,13.84,0,0,0,43.64,84.7Z"/><path class="cls-5" d="M90.91,70.24a3.59,3.59,0,0,1,2.63,1,3.64,3.64,0,0,1,1,2.69v25.8a3.64,3.64,0,0,1-1,2.65,3.75,3.75,0,0,1-5.25,0,3.65,3.65,0,0,1-1-2.65v-3l1.35.55a3.43,3.43,0,0,1-.86,1.92,11.85,11.85,0,0,1-2.32,2.23A14.21,14.21,0,0,1,82,103.34a12.07,12.07,0,0,1-4.3.76,13.91,13.91,0,0,1-7.63-2.17,15.17,15.17,0,0,1-5.4-6,20.48,20.48,0,0,1,0-17.57,15.36,15.36,0,0,1,5.34-6,13.48,13.48,0,0,1,7.44-2.17,14,14,0,0,1,4.82.8,14.3,14.3,0,0,1,3.81,2,11.27,11.27,0,0,1,2.5,2.47,4,4,0,0,1,.89,2.11l-2.2.79V74a3.67,3.67,0,0,1,1-2.66A3.51,3.51,0,0,1,90.91,70.24ZM78.59,97.39a8.31,8.31,0,0,0,4.7-1.34,9.13,9.13,0,0,0,3.14-3.66,12.6,12.6,0,0,0,0-10.43,9,9,0,0,0-3.14-3.66A8.24,8.24,0,0,0,78.59,77,8.1,8.1,0,0,0,74,78.3,9,9,0,0,0,70.81,82a12.7,12.7,0,0,0,0,10.43A9.15,9.15,0,0,0,74,96.05,8.17,8.17,0,0,0,78.59,97.39Z"/><path class="cls-5" d="M116.72,70.24a22.41,22.41,0,0,1,6.07.74,9.86,9.86,0,0,1,4,2,4.09,4.09,0,0,1,1.43,3.14,3.94,3.94,0,0,1-.73,2.29,2.43,2.43,0,0,1-2.13,1.07,4.2,4.2,0,0,1-1.62-.28,4.3,4.3,0,0,1-1.13-.7,6.19,6.19,0,0,0-1.16-.79,5.29,5.29,0,0,0-1.86-.58,12.66,12.66,0,0,0-1.86-.22,9.76,9.76,0,0,0-5.27,1.35,8.84,8.84,0,0,0-3.33,3.63A11.52,11.52,0,0,0,108,87.2a11.21,11.21,0,0,0,1.19,5.22,9.4,9.4,0,0,0,3.3,3.63,8.86,8.86,0,0,0,4.85,1.34,16.48,16.48,0,0,0,2.62-.18,7,7,0,0,0,1.83-.55,10.63,10.63,0,0,0,1.52-1,3.12,3.12,0,0,1,2-.55,3,3,0,0,1,2.44,1,3.67,3.67,0,0,1,.85,2.47,3.47,3.47,0,0,1-1.71,2.77,13.61,13.61,0,0,1-4.48,2,23,23,0,0,1-6,.76,15.33,15.33,0,0,1-8.36-2.23,14.85,14.85,0,0,1-5.46-6.07,19,19,0,0,1-1.92-8.6,18.28,18.28,0,0,1,2-8.81,15.12,15.12,0,0,1,5.67-6A16,16,0,0,1,116.72,70.24Z"/><path class="cls-5" d="M138.19,103.49a3.54,3.54,0,0,1-2.63-1.07,3.64,3.64,0,0,1-1-2.65V62.07a3.64,3.64,0,0,1,1-2.65,3.75,3.75,0,0,1,5.25,0,3.65,3.65,0,0,1,1,2.65v37.7a3.65,3.65,0,0,1-1,2.65A3.51,3.51,0,0,1,138.19,103.49Zm19.4-32.64A3.21,3.21,0,0,1,160,72a3.47,3.47,0,0,1,1,2.26A3.69,3.69,0,0,1,159.6,77L141.24,93.91l-.31-8.42L154.9,72A3.7,3.7,0,0,1,157.59,70.85Zm.91,32.58a3.47,3.47,0,0,1-2.68-1.22l-11.29-12,5.55-5.12,11,12a3.92,3.92,0,0,1,1.16,2.75,3.18,3.18,0,0,1-1.25,2.59A4,4,0,0,1,158.5,103.43Z"/></svg>