<svg id="Layer_1" data-name="Layer 1" xmlns="http://www.w3.org/2000/svg" viewBox="0 0 168 218.93"><defs><style>.cls-1{fill:#78adeb;}.cls-2{fill:#33609f;}.cls-3{fill:#5586c4;}.cls-4{fill:#063d7a;}</style></defs><path class="cls-1" d="M84,0V84.07H0V84A84,84,0,0,1,84,0Z"/><path class="cls-2" d="M84,84.07V168A84,84,0,0,1,0,84.07Z"/><path class="cls-3" d="M84,0V84.07h84V84A84,84,0,0,0,84,0Z"/><path class="cls-4" d="M84,84.07V168a84,84,0,0,0,84-83.93Z"/><path d="M47.42,175.2a8.79,8.79,0,0,1,6.32,2.18A8,8,0,0,1,56,183.46a8.76,8.76,0,0,1-.87,3.86,7.12,7.12,0,0,1-2.57,2.93,8.27,8.27,0,0,1-4.15,1.27l-.24-1a12.36,12.36,0,0,1,3.48.5,9.08,9.08,0,0,1,3.08,1.61,8.25,8.25,0,0,1,2.18,2.76,9.07,9.07,0,0,1,.82,4,10.27,10.27,0,0,1-.84,4.3,8,8,0,0,1-2.28,2.92,9.23,9.23,0,0,1-3.25,1.64,14,14,0,0,1-3.76.5H34.71a1.36,1.36,0,0,1-1-.43,1.44,1.44,0,0,1-.4-1V176.64a1.44,1.44,0,0,1,.4-1,1.36,1.36,0,0,1,1-.43ZM47,178.08H35.76l.58-.91v13.58l-.53-.72H47A5.76,5.76,0,0,0,53,183.7a5.47,5.47,0,0,0-1.57-4.11A6,6,0,0,0,47,178.08ZM47.38,193H36.1l.24-.34V206.4l-.29-.43H47.42a8.38,8.38,0,0,0,5.19-1.56,5.85,5.85,0,0,0,2.06-5,6.59,6.59,0,0,0-1-3.84,5.47,5.47,0,0,0-2.69-2A10.62,10.62,0,0,0,47.38,193Z"/><path d="M83.71,184.27a1.41,1.41,0,0,1,1,.43,1.49,1.49,0,0,1,.4,1.06v21.6a1.39,1.39,0,0,1-.43,1,1.37,1.37,0,0,1-1,.43,1.4,1.4,0,0,1-1.08-.43,1.45,1.45,0,0,1-.41-1v-5.71l.87-.34a5.76,5.76,0,0,1-.75,2.71,9.22,9.22,0,0,1-2,2.6,10.93,10.93,0,0,1-3,1.92,9.78,9.78,0,0,1-3.82.74,10.32,10.32,0,0,1-5.78-1.68,11.46,11.46,0,0,1-4-4.61,14.43,14.43,0,0,1-1.47-6.57,14.08,14.08,0,0,1,1.49-6.6,11.47,11.47,0,0,1,4-4.49,10.79,10.79,0,0,1,9.58-.91,10.1,10.1,0,0,1,3.14,2,9.2,9.2,0,0,1,2.09,2.86,7.93,7.93,0,0,1,.74,3.34l-1-.72v-6.1a1.5,1.5,0,0,1,.41-1.06A1.44,1.44,0,0,1,83.71,184.27Zm-10,22.32a7.91,7.91,0,0,0,4.51-1.32,9.05,9.05,0,0,0,3.1-3.65,11.77,11.77,0,0,0,1.12-5.2,11.3,11.3,0,0,0-1.12-5.07,9.17,9.17,0,0,0-3.1-3.6,7.91,7.91,0,0,0-4.51-1.32,8.22,8.22,0,0,0-4.49,1.27,8.71,8.71,0,0,0-3.12,3.53A11.49,11.49,0,0,0,65,196.42a11.91,11.91,0,0,0,1.11,5.2,8.66,8.66,0,0,0,3.09,3.65A8,8,0,0,0,73.73,206.59Z"/><path d="M103.25,183.7a16.63,16.63,0,0,1,4.27.5,9.19,9.19,0,0,1,3.1,1.37,2.38,2.38,0,0,1,1.17,1.87,1.52,1.52,0,0,1-.36.94,1.14,1.14,0,0,1-.93.45,1.59,1.59,0,0,1-.94-.26,4.36,4.36,0,0,1-.7-.67,2.51,2.51,0,0,0-1-.7,6.43,6.43,0,0,0-1.8-.55,14.08,14.08,0,0,0-2.62-.22,9,9,0,0,0-4.85,1.35,9.67,9.67,0,0,0-3.41,3.6,10.33,10.33,0,0,0-1.24,5.08,11.32,11.32,0,0,0,1.17,5.19,9,9,0,0,0,3.31,3.62,9.2,9.2,0,0,0,4.92,1.32,10.46,10.46,0,0,0,3-.33,10.06,10.06,0,0,0,1.82-.77,5.35,5.35,0,0,0,1.35-1,1.37,1.37,0,0,1,1.1-.51,1.17,1.17,0,0,1,.91.36,1.29,1.29,0,0,1,.34.94,2.49,2.49,0,0,1-1.13,1.7,9.88,9.88,0,0,1-3.09,1.63,13.57,13.57,0,0,1-4.56.7A11.42,11.42,0,0,1,92.57,203a14,14,0,0,1-1.51-6.56,13.39,13.39,0,0,1,1.53-6.38,12.34,12.34,0,0,1,4.27-4.63A11.6,11.6,0,0,1,103.25,183.7Z"/><path d="M119.09,208.8a1.34,1.34,0,0,1-1-.43,1.41,1.41,0,0,1-.41-1V174.72a1.41,1.41,0,0,1,.41-1,1.34,1.34,0,0,1,1-.43,1.35,1.35,0,0,1,1,.43,1.45,1.45,0,0,1,.41,1v32.64a1.45,1.45,0,0,1-.41,1A1.35,1.35,0,0,1,119.09,208.8Zm16.27-24.62a1.37,1.37,0,0,1,1,.45,1.41,1.41,0,0,1,.43,1,1.47,1.47,0,0,1-.53,1.1l-16.13,13.73L120,197l14.4-12.38A1.28,1.28,0,0,1,135.36,184.18Zm.43,24.62a1.47,1.47,0,0,1-1.1-.53l-10.9-11.61,2.16-2,10.85,11.57a1.59,1.59,0,0,1,.43,1.1,1.23,1.23,0,0,1-.53,1.06A1.66,1.66,0,0,1,135.79,208.8Z"/></svg>