<svg id="Layer_1" data-name="Layer 1" xmlns="http://www.w3.org/2000/svg" viewBox="0 0 168 168"><defs><style>.cls-1{fill:#78adeb;}.cls-2{fill:#33609f;}.cls-3{fill:#5586c4;}.cls-4{fill:#063d7a;}.cls-5{fill:#fff;}</style></defs><polygon class="cls-1" points="84 0 84 84.07 0 84.07 0 84 84 0"/><polygon class="cls-2" points="84 84.07 84 168 0.07 84.07 84 84.07"/><path class="cls-3" d="M84,0V84.07h84V84A84,84,0,0,0,84,0Z"/><path class="cls-4" d="M84,84.07V168a84,84,0,0,0,84-83.93Z"/><path class="cls-5" d="M44.31,60.79q5.13,0,8,2.77a10.22,10.22,0,0,1,2.9,7.72,11.21,11.21,0,0,1-1.1,4.91,9.07,9.07,0,0,1-3.26,3.72,10.49,10.49,0,0,1-5.28,1.62l-.3-1.22a15.45,15.45,0,0,1,4.42.64,11.38,11.38,0,0,1,3.9,2,10.34,10.34,0,0,1,2.78,3.51,11.43,11.43,0,0,1,1,5.09,12.81,12.81,0,0,1-1.07,5.46,10,10,0,0,1-2.9,3.72,11.7,11.7,0,0,1-4.12,2.08,17.53,17.53,0,0,1-4.79.64H28.14a1.73,1.73,0,0,1-1.31-.55,1.83,1.83,0,0,1-.52-1.28v-39a1.82,1.82,0,0,1,.52-1.28,1.73,1.73,0,0,1,1.31-.55Zm-.55,3.66H29.49l.73-1.16V80.55l-.67-.91H43.82a7.73,7.73,0,0,0,5.34-2.08q2.16-2,2.16-6a6.93,6.93,0,0,0-2-5.22A7.68,7.68,0,0,0,43.76,64.45Zm.49,18.91H29.91l.31-.43v17.51l-.37-.55H44.31a10.64,10.64,0,0,0,6.59-2q2.63-2,2.62-6.32a8.39,8.39,0,0,0-1.28-4.88,6.87,6.87,0,0,0-3.42-2.59A13.45,13.45,0,0,0,44.25,83.36Z"/><path class="cls-5" d="M90.42,72.32a1.74,1.74,0,0,1,1.32.55,1.88,1.88,0,0,1,.51,1.34v27.45a1.87,1.87,0,0,1-3.2,1.28,1.83,1.83,0,0,1-.52-1.28V94.4l1.1-.43a7.42,7.42,0,0,1-.94,3.45,12,12,0,0,1-2.6,3.29,13.48,13.48,0,0,1-3.87,2.44,12.3,12.3,0,0,1-4.85.95A13.08,13.08,0,0,1,70,102a14.59,14.59,0,0,1-5.12-5.85A18.44,18.44,0,0,1,63,87.75a17.92,17.92,0,0,1,1.89-8.39,14.59,14.59,0,0,1,5.12-5.7A13.74,13.74,0,0,1,82.22,72.5a12.9,12.9,0,0,1,4,2.5,11.7,11.7,0,0,1,2.65,3.63,10,10,0,0,1,.94,4.24L88.53,82V74.21a1.89,1.89,0,0,1,.52-1.34A1.79,1.79,0,0,1,90.42,72.32ZM77.74,100.68A10.12,10.12,0,0,0,83.47,99a11.42,11.42,0,0,0,3.93-4.64,14.92,14.92,0,0,0,1.44-6.62,14.23,14.23,0,0,0-1.44-6.43,11.44,11.44,0,0,0-3.93-4.58,10,10,0,0,0-5.73-1.68A10.37,10.37,0,0,0,72,76.68a11,11,0,0,0-4,4.48,14.49,14.49,0,0,0-1.43,6.59A15.19,15.19,0,0,0,68,94.37,11.12,11.12,0,0,0,72,99,10.27,10.27,0,0,0,77.74,100.68Z"/><path class="cls-5" d="M115.25,71.59a21.29,21.29,0,0,1,5.43.64A11.2,11.2,0,0,1,124.61,74a3,3,0,0,1,1.5,2.37,1.86,1.86,0,0,1-.46,1.19,1.43,1.43,0,0,1-1.19.58,2,2,0,0,1-1.19-.33,5.07,5.07,0,0,1-.88-.86,3.36,3.36,0,0,0-1.28-.88,8.11,8.11,0,0,0-2.29-.7,17.81,17.81,0,0,0-3.32-.28,11.44,11.44,0,0,0-6.17,1.71A12.29,12.29,0,0,0,105,81.35a13.18,13.18,0,0,0-1.58,6.46,14.24,14.24,0,0,0,1.49,6.59A11.44,11.44,0,0,0,109.12,99a11.71,11.71,0,0,0,6.25,1.67,13.33,13.33,0,0,0,3.79-.42,12.53,12.53,0,0,0,2.31-1A6.41,6.41,0,0,0,123.18,98a1.75,1.75,0,0,1,1.4-.64,1.49,1.49,0,0,1,1.16.46,1.63,1.63,0,0,1,.43,1.18,3.16,3.16,0,0,1-1.43,2.17,12.79,12.79,0,0,1-3.94,2.07,17.35,17.35,0,0,1-5.79.89,14.55,14.55,0,0,1-13.33-8,17.79,17.79,0,0,1-1.92-8.33,17,17,0,0,1,1.95-8.11,15.61,15.61,0,0,1,5.43-5.89A14.74,14.74,0,0,1,115.25,71.59Z"/><path class="cls-5" d="M135.38,103.49a1.7,1.7,0,0,1-1.31-.55,1.79,1.79,0,0,1-.52-1.28V60.18a1.77,1.77,0,0,1,.52-1.28,1.84,1.84,0,0,1,2.62,0,1.77,1.77,0,0,1,.52,1.28v41.48a1.79,1.79,0,0,1-.52,1.28A1.7,1.7,0,0,1,135.38,103.49ZM156.06,72.2a1.7,1.7,0,0,1,1.28.58,1.76,1.76,0,0,1,.55,1.25,1.85,1.85,0,0,1-.67,1.4l-20.5,17.45-.18-4.34,18.3-15.73A1.61,1.61,0,0,1,156.06,72.2Zm.55,31.29a1.82,1.82,0,0,1-1.4-.67L141.36,88.06l2.74-2.51,13.79,14.71a2,2,0,0,1,.55,1.4,1.55,1.55,0,0,1-.67,1.34A2.09,2.09,0,0,1,156.61,103.49Z"/></svg>